<svg id="my-svg" width="100%" xmlns="http://www.w3.org/2000/svg" xmlns:xlink="http://www.w3.org/1999/xlink" class="classDiagram" style="max-width: 2142.15px; background-color: transparent;" viewBox="0 0 2142.1484375 365.5" role="graphics-document document" aria-roledescription="class"><style>#my-svg{font-family:"trebuchet ms",verdana,arial,sans-serif;font-size:16px;fill:#fafafa;}@keyframes edge-animation-frame{from{stroke-dashoffset:0;}}@keyframes dash{to{stroke-dashoffset:0;}}#my-svg .edge-animation-slow{stroke-dasharray:9,5!important;stroke-dashoffset:900;animation:dash 50s linear infinite;stroke-linecap:round;}#my-svg .edge-animation-fast{stroke-dasharray:9,5!important;stroke-dashoffset:900;animation:dash 20s linear infinite;stroke-linecap:round;}#my-svg .error-icon{fill:#242428;}#my-svg .error-text{fill:#dbdbd7;stroke:#dbdbd7;}#my-svg .edge-thickness-normal{stroke-width:1px;}#my-svg .edge-thickness-thick{stroke-width:3.5px;}#my-svg .edge-pattern-solid{stroke-dasharray:0;}#my-svg .edge-thickness-invisible{stroke-width:0;fill:none;}#my-svg .edge-pattern-dashed{stroke-dasharray:3;}#my-svg .edge-pattern-dotted{stroke-dasharray:2;}#my-svg .marker{fill:#71717a;stroke:#71717a;}#my-svg .marker.cross{stroke:#71717a;}#my-svg svg{font-family:"trebuchet ms",verdana,arial,sans-serif;font-size:16px;}#my-svg p{margin:0;}#my-svg g.classGroup text{fill:#7bd0ff;stroke:none;font-family:"trebuchet ms",verdana,arial,sans-serif;font-size:10px;}#my-svg g.classGroup text .title{font-weight:bolder;}#my-svg .cluster-label text{fill:#dbdbd7;}#my-svg .cluster-label span{color:#dbdbd7;}#my-svg .cluster-label span p{background-color:transparent;}#my-svg .cluster rect{fill:#18181b;stroke:#3f3f46;stroke-width:1px;}#my-svg .cluster text{fill:#dbdbd7;}#my-svg .cluster span{color:#dbdbd7;}#my-svg .nodeLabel,#my-svg .edgeLabel{color:#fafafa;}#my-svg .noteLabel .nodeLabel,#my-svg .noteLabel .edgeLabel{color:#333;}#my-svg .edgeLabel .label rect{fill:#27272a;}#my-svg .label text{fill:#fafafa;}#my-svg .labelBkg{background:#27272a;}#my-svg .edgeLabel .label span{background:#27272a;}#my-svg .classTitle{font-weight:bolder;}#my-svg .node rect,#my-svg .node circle,#my-svg .node ellipse,#my-svg .node polygon,#my-svg .node path{fill:#27272a;stroke:#7bd0ff;stroke-width:1;}#my-svg .divider{stroke:#7bd0ff;stroke-width:1;}#my-svg g.clickable{cursor:pointer;}#my-svg g.classGroup rect{fill:#27272a;stroke:#7bd0ff;}#my-svg g.classGroup line{stroke:#7bd0ff;stroke-width:1;}#my-svg .classLabel .box{stroke:none;stroke-width:0;fill:#27272a;opacity:0.5;}#my-svg .classLabel .label{fill:#7bd0ff;font-size:10px;}#my-svg .relation{stroke:#71717a;stroke-width:1;fill:none;}#my-svg .dashed-line{stroke-dasharray:3;}#my-svg .dotted-line{stroke-dasharray:1 2;}#my-svg [id$="-compositionStart"],#my-svg .composition{fill:#71717a!important;stroke:#71717a!important;stroke-width:1;}#my-svg [id$="-compositionEnd"],#my-svg .composition{fill:#71717a!important;stroke:#71717a!important;stroke-width:1;}#my-svg [id$="-dependencyStart"],#my-svg .dependency{fill:#71717a!important;stroke:#71717a!important;stroke-width:1;}#my-svg [id$="-dependencyEnd"],#my-svg .dependency{fill:#71717a!important;stroke:#71717a!important;stroke-width:1;}#my-svg [id$="-extensionStart"],#my-svg .extension{fill:transparent!important;stroke:#71717a!important;stroke-width:1;}#my-svg [id$="-extensionEnd"],#my-svg .extension{fill:transparent!important;stroke:#71717a!important;stroke-width:1;}#my-svg [id$="-aggregationStart"],#my-svg .aggregation{fill:transparent!important;stroke:#71717a!important;stroke-width:1;}#my-svg [id$="-aggregationEnd"],#my-svg .aggregation{fill:transparent!important;stroke:#71717a!important;stroke-width:1;}#my-svg [id$="-lollipopStart"],#my-svg .lollipop{fill:#27272a!important;stroke:#71717a!important;stroke-width:1;}#my-svg [id$="-lollipopEnd"],#my-svg .lollipop{fill:#27272a!important;stroke:#71717a!important;stroke-width:1;}#my-svg .edgeTerminals{font-size:11px;line-height:initial;}#my-svg .classTitleText{text-anchor:middle;font-size:18px;fill:#fafafa;}#my-svg .edgeLabel[data-look="neo"]{background-color:#18181b;text-align:center;}#my-svg .edgeLabel[data-look="neo"] p{background-color:#18181b;}#my-svg .edgeLabel[data-look="neo"] rect{opacity:0.5;background-color:#18181b;fill:#18181b;}#my-svg .label-icon{display:inline-block;height:1em;overflow:visible;vertical-align:-0.125em;}#my-svg .node .label-icon path{fill:currentColor;stroke:revert;stroke-width:revert;}#my-svg .node .neo-node{stroke:#7bd0ff;}#my-svg [data-look="neo"].node rect,#my-svg [data-look="neo"].cluster rect,#my-svg [data-look="neo"].node polygon{stroke:url(#my-svg-gradient);filter:drop-shadow( 1px 2px 2px rgba(185,185,185,1));}#my-svg [data-look="neo"].node path{stroke:url(#my-svg-gradient);stroke-width:1px;}#my-svg [data-look="neo"].node .outer-path{filter:drop-shadow( 1px 2px 2px rgba(185,185,185,1));}#my-svg [data-look="neo"].node .neo-line path{stroke:#7bd0ff;filter:none;}#my-svg [data-look="neo"].node circle{stroke:url(#my-svg-gradient);filter:drop-shadow( 1px 2px 2px rgba(185,185,185,1));}#my-svg [data-look="neo"].node circle .state-start{fill:#000000;}#my-svg [data-look="neo"].icon-shape .icon{fill:url(#my-svg-gradient);filter:drop-shadow( 1px 2px 2px rgba(185,185,185,1));}#my-svg [data-look="neo"].icon-shape .icon-neo path{stroke:url(#my-svg-gradient);filter:drop-shadow( 1px 2px 2px rgba(185,185,185,1));}#my-svg :root{--mermaid-font-family:"trebuchet ms",verdana,arial,sans-serif;}</style><g><defs><marker id="my-svg_class-aggregationStart" class="marker aggregation class" refX="18" refY="7" markerWidth="190" markerHeight="240" orient="auto"><path d="M 18,7 L9,13 L1,7 L9,1 Z"/></marker></defs><defs><marker id="my-svg_class-aggregationEnd" class="marker aggregation class" refX="1" refY="7" markerWidth="20" markerHeight="28" orient="auto"><path d="M 18,7 L9,13 L1,7 L9,1 Z"/></marker></defs><defs><marker id="my-svg_class-aggregationStart-margin" class="marker aggregation class" refX="15" refY="7" markerWidth="190" markerHeight="240" orient="auto" markerUnits="userSpaceOnUse"><path d="M 18,7 L9,13 L1,7 L9,1 Z" style="stroke-width: 2;"/></marker></defs><defs><marker id="my-svg_class-aggregationEnd-margin" class="marker aggregation class" refX="1" refY="7" markerWidth="20" markerHeight="28" orient="auto" markerUnits="userSpaceOnUse"><path d="M 18,7 L9,13 L1,7 L9,1 Z" style="stroke-width: 2;"/></marker></defs><defs><marker id="my-svg_class-extensionStart" class="marker extension class" refX="18" refY="7" markerWidth="20" markerHeight="28" orient="auto" markerUnits="userSpaceOnUse"><path d="M 1,7 L18,13 V 1 Z"/></marker></defs><defs><marker id="my-svg_class-extensionEnd" class="marker extension class" refX="1" refY="7" markerWidth="20" markerHeight="28" orient="auto"><path d="M 1,1 V 13 L18,7 Z"/></marker></defs><marker id="my-svg_class-extensionStart-margin" class="marker extension class" refX="18" refY="7" markerWidth="20" markerHeight="28" orient="auto" markerUnits="userSpaceOnUse" viewBox="0 0 20 14"><polygon points="10,7 18,13 18,1" style="stroke-width: 2; stroke-dasharray: 0;"/></marker><defs><marker id="my-svg_class-extensionEnd-margin" class="marker extension class" refX="9" refY="7" markerWidth="20" markerHeight="28" orient="auto" markerUnits="userSpaceOnUse" viewBox="0 0 20 14"><polygon points="10,1 10,13 18,7" style="stroke-width: 2; stroke-dasharray: 0;"/></marker></defs><defs><marker id="my-svg_class-compositionStart" class="marker composition class" refX="18" refY="7" markerWidth="190" markerHeight="240" orient="auto"><path d="M 18,7 L9,13 L1,7 L9,1 Z"/></marker></defs><defs><marker id="my-svg_class-compositionEnd" class="marker composition class" refX="1" refY="7" markerWidth="20" markerHeight="28" orient="auto"><path d="M 18,7 L9,13 L1,7 L9,1 Z"/></marker></defs><defs><marker id="my-svg_class-compositionStart-margin" class="marker composition class" refX="15" refY="7" markerWidth="190" markerHeight="240" orient="auto" markerUnits="userSpaceOnUse"><path viewBox="0 0 15 15" d="M 18,7 L9,13 L1,7 L9,1 Z" style="stroke-width: 0;"/></marker></defs><defs><marker id="my-svg_class-compositionEnd-margin" class="marker composition class" refX="3.5" refY="7" markerWidth="20" markerHeight="28" orient="auto" markerUnits="userSpaceOnUse"><path d="M 18,7 L9,13 L1,7 L9,1 Z" style="stroke-width: 0;"/></marker></defs><defs><marker id="my-svg_class-dependencyStart" class="marker dependency class" refX="6" refY="7" markerWidth="190" markerHeight="240" orient="auto"><path d="M 5,7 L9,13 L1,7 L9,1 Z"/></marker></defs><defs><marker id="my-svg_class-dependencyEnd" class="marker dependency class" refX="13" refY="7" markerWidth="20" markerHeight="28" orient="auto"><path d="M 18,7 L9,13 L14,7 L9,1 Z"/></marker></defs><defs><marker id="my-svg_class-dependencyStart-margin" class="marker dependency class" refX="4" refY="7" markerWidth="190" markerHeight="240" orient="auto" markerUnits="userSpaceOnUse"><path d="M 5,7 L9,13 L1,7 L9,1 Z" style="stroke-width: 0;"/></marker></defs><defs><marker id="my-svg_class-dependencyEnd-margin" class="marker dependency class" refX="16" refY="7" markerWidth="20" markerHeight="28" orient="auto" markerUnits="userSpaceOnUse"><path d="M 18,7 L9,13 L14,7 L9,1 Z" style="stroke-width: 0;"/></marker></defs><defs><marker id="my-svg_class-lollipopStart" class="marker lollipop class" refX="13" refY="7" markerWidth="190" markerHeight="240" orient="auto"><circle fill="transparent" cx="7" cy="7" r="6"/></marker></defs><defs><marker id="my-svg_class-lollipopEnd" class="marker lollipop class" refX="1" refY="7" markerWidth="190" markerHeight="240" orient="auto"><circle fill="transparent" cx="7" cy="7" r="6"/></marker></defs><defs><marker id="my-svg_class-lollipopStart-margin" class="marker lollipop class" refX="13" refY="7" markerWidth="190" markerHeight="240" orient="auto" markerUnits="userSpaceOnUse"><circle fill="transparent" cx="7" cy="7" r="6" stroke-width="2"/></marker></defs><defs><marker id="my-svg_class-lollipopEnd-margin" class="marker lollipop class" refX="1" refY="7" markerWidth="190" markerHeight="240" orient="auto" markerUnits="userSpaceOnUse"><circle fill="transparent" cx="7" cy="7" r="6" stroke-width="2"/></marker></defs><g class="root"><g class="clusters"/><g class="edgePaths"><path d="M164.963,280.829L171.482,283.608C178.001,286.386,191.04,291.943,206.723,294.722C222.406,297.5,240.734,297.5,249.898,297.5L259.063,297.5" id="my-svg-id_School_Classroom_1" class="edge-thickness-normal edge-pattern-solid relation" style=";;;" data-edge="true" data-et="edge" data-id="id_School_Classroom_1" data-points="W3sieCI6MTQ5LjA5Mzc1LCJ5IjoyNzQuMDY2MjgwODA2NTcyMX0seyJ4IjoyMDQuMDc4MTI1LCJ5IjoyOTcuNX0seyJ4IjoyNTkuMDYyNSwieSI6Mjk3LjV9XQ==" data-look="classic" marker-start="url(#my-svg_class-compositionStart)"/><path d="M164.963,207.171L171.482,204.392C178.001,201.614,191.04,196.057,227.849,193.278C264.658,190.5,325.237,190.5,383.01,190.5C440.784,190.5,495.751,190.5,529.593,192.298C563.435,194.097,576.151,197.693,582.509,199.491L588.867,201.29" id="my-svg-id_School_Subject_2" class="edge-thickness-normal edge-pattern-solid relation" style=";;;" data-edge="true" data-et="edge" data-id="id_School_Subject_2" data-points="W3sieCI6MTQ5LjA5Mzc1LCJ5IjoyMTMuOTMzNzE5MTkzNDI3OTJ9LHsieCI6MjA0LjA3ODEyNSwieSI6MTkwLjV9LHsieCI6Mzg1LjgxNjQwNjI1LCJ5IjoxOTAuNX0seyJ4Ijo1NTAuNzE4NzUsInkiOjE5MC41fSx7IngiOjU4OC44NjcxODc1LCJ5IjoyMDEuMjg5NzExNzEzMjAwMDZ9XQ==" data-look="classic" marker-start="url(#my-svg_class-compositionStart)"/><path d="M529.82,297.5L533.303,297.5C536.786,297.5,543.753,297.5,553.594,295.702C563.435,293.903,576.151,290.307,582.509,288.509L588.867,286.71" id="my-svg-id_Classroom_Subject_3" class="edge-thickness-normal edge-pattern-solid relation" style=";;;" data-edge="true" data-et="edge" data-id="id_Classroom_Subject_3" data-points="W3sieCI6NTEyLjU3MDMxMjUsInkiOjI5Ny41fSx7IngiOjU1MC43MTg3NSwieSI6Mjk3LjV9LHsieCI6NTg4Ljg2NzE4NzUsInkiOjI4Ni43MTAyODgyODY3OTk5NH1d" data-look="classic" marker-start="url(#my-svg_class-aggregationStart)"/><path d="M908.133,244L914.633,244C921.133,244,934.133,244,950.008,244C965.883,244,984.633,244,994.008,244L1003.383,244" id="my-svg-id_Subject_Chapter_4" class="edge-thickness-normal edge-pattern-solid relation" style=";;;" data-edge="true" data-et="edge" data-id="id_Subject_Chapter_4" data-points="W3sieCI6ODkwLjg4MjgxMjUsInkiOjI0NH0seyJ4Ijo5NDcuMTMyODEyNSwieSI6MjQ0fSx7IngiOjEwMDMuMzgyODEyNSwieSI6MjQ0fV0=" data-look="classic" marker-start="url(#my-svg_class-compositionStart)"/><path d="M1276.898,244L1283.398,244C1289.898,244,1302.898,244,1318.773,244C1334.648,244,1353.398,244,1362.773,244L1372.148,244" id="my-svg-id_Chapter_Video_5" class="edge-thickness-normal edge-pattern-solid relation" style=";;;" data-edge="true" data-et="edge" data-id="id_Chapter_Video_5" data-points="W3sieCI6MTI1OS42NDg0Mzc1LCJ5IjoyNDR9LHsieCI6MTMxNS44OTg0Mzc1LCJ5IjoyNDR9LHsieCI6MTM3Mi4xNDg0Mzc1LCJ5IjoyNDR9XQ==" data-look="classic" marker-start="url(#my-svg_class-compositionStart)"/><path d="M1670.887,71L1687.247,71C1703.607,71,1736.327,71,1760.974,74.411C1785.622,77.821,1802.197,84.642,1810.484,88.053L1818.772,91.464" id="my-svg-id_User_VideoProgress_6" class="edge-thickness-normal edge-pattern-solid relation" style=";;;" data-edge="true" data-et="edge" data-id="id_User_VideoProgress_6" data-points="W3sieCI6MTY3MC44ODY3MTg3NSwieSI6NzF9LHsieCI6MTc2OS4wNDY4NzUsInkiOjcxfSx7IngiOjE4MjQuMzIwMzEyNSwieSI6OTMuNzQ3MDgyMjE4MjU3NX1d" data-look="classic" marker-end="url(#my-svg_class-dependencyEnd)"/><path d="M1713.773,244L1722.986,244C1732.198,244,1750.622,244,1768.122,240.589C1785.622,237.179,1802.197,230.358,1810.484,226.947L1818.772,223.536" id="my-svg-id_Video_VideoProgress_7" class="edge-thickness-normal edge-pattern-solid relation" style=";;;" data-edge="true" data-et="edge" data-id="id_Video_VideoProgress_7" data-points="W3sieCI6MTcxMy43NzM0Mzc1LCJ5IjoyNDR9LHsieCI6MTc2OS4wNDY4NzUsInkiOjI0NH0seyJ4IjoxODI0LjMyMDMxMjUsInkiOjIyMS4yNTI5MTc3ODE3NDI1fV0=" data-look="classic" marker-end="url(#my-svg_class-dependencyEnd)"/></g><g class="edgeLabels"><g class="edgeLabel" transform="translate(204.078125, 297.5)"><g class="label" data-id="id_School_Classroom_1" transform="translate(-29.984375, -12)"><foreignObject width="59.96875" height="24"><div xmlns="http://www.w3.org/1999/xhtml" class="labelBkg" style="display: table-cell; white-space: nowrap; line-height: 1.5; max-width: 200px; text-align: center;"><span class="edgeLabel"><p>contient</p></span></div></foreignObject></g></g><g class="edgeLabel" transform="translate(385.81640625, 190.5)"><g class="label" data-id="id_School_Subject_2" transform="translate(-28.4140625, -12)"><foreignObject width="56.828125" height="24"><div xmlns="http://www.w3.org/1999/xhtml" class="labelBkg" style="display: table-cell; white-space: nowrap; line-height: 1.5; max-width: 200px; text-align: center;"><span class="edgeLabel"><p>possède</p></span></div></foreignObject></g></g><g class="edgeLabel" transform="translate(550.71875, 297.5)"><g class="label" data-id="id_Classroom_Subject_3" transform="translate(-13.1484375, -12)"><foreignObject width="26.296875" height="24"><div xmlns="http://www.w3.org/1999/xhtml" class="labelBkg" style="display: table-cell; white-space: nowrap; line-height: 1.5; max-width: 200px; text-align: center;"><span class="edgeLabel"><p>N-N</p></span></div></foreignObject></g></g><g class="edgeLabel" transform="translate(947.1328125, 244)"><g class="label" data-id="id_Subject_Chapter_4" transform="translate(-31.25, -12)"><foreignObject width="62.5" height="24"><div xmlns="http://www.w3.org/1999/xhtml" class="labelBkg" style="display: table-cell; white-space: nowrap; line-height: 1.5; max-width: 200px; text-align: center;"><span class="edgeLabel"><p>compose</p></span></div></foreignObject></g></g><g class="edgeLabel" transform="translate(1315.8984375, 244)"><g class="label" data-id="id_Chapter_Video_5" transform="translate(-31.25, -12)"><foreignObject width="62.5" height="24"><div xmlns="http://www.w3.org/1999/xhtml" class="labelBkg" style="display: table-cell; white-space: nowrap; line-height: 1.5; max-width: 200px; text-align: center;"><span class="edgeLabel"><p>compose</p></span></div></foreignObject></g></g><g class="edgeLabel" transform="translate(1769.046875, 71)"><g class="label" data-id="id_User_VideoProgress_6" transform="translate(-24.5859375, -12)"><foreignObject width="49.171875" height="24"><div xmlns="http://www.w3.org/1999/xhtml" class="labelBkg" style="display: table-cell; white-space: nowrap; line-height: 1.5; max-width: 200px; text-align: center;"><span class="edgeLabel"><p>génère</p></span></div></foreignObject></g></g><g class="edgeLabel" transform="translate(1769.046875, 244)"><g class="label" data-id="id_Video_VideoProgress_7" transform="translate(-30.2734375, -12)"><foreignObject width="60.546875" height="24"><div xmlns="http://www.w3.org/1999/xhtml" class="labelBkg" style="display: table-cell; white-space: nowrap; line-height: 1.5; max-width: 200px; text-align: center;"><span class="edgeLabel"><p>suivi par</p></span></div></foreignObject></g></g><g class="edgeTerminals" transform="translate(159.3116467727495, 294.7264982639383)"><g class="inner" transform="translate(-2.890625, -8.25)"><foreignObject width="5.78125" height="16.5" style="width: 9px; height: 12px;"><div xmlns="http://www.w3.org/1999/xhtml" style="display: table-cell; white-space: nowrap; line-height: 1.5;"><span class="edgeLabel"><p>1</p></span></div></foreignObject></g></g><g class="edgeTerminals" transform="translate(171.0736432272505, 220.87160745736625)"><g class="inner" transform="translate(-2.890625, -8.25)"><foreignObject width="5.78125" height="16.5" style="width: 9px; height: 12px;"><div xmlns="http://www.w3.org/1999/xhtml" style="display: table-cell; white-space: nowrap; line-height: 1.5;"><span class="edgeLabel"><p>1</p></span></div></foreignObject></g></g><g class="edgeTerminals" transform="translate(530.07031125, 312.5)"><g class="inner" transform="translate(-8.9453125, -8.25)"><foreignObject width="17.890625" height="16.5" style="width: 36px; height: 12px;"><div xmlns="http://www.w3.org/1999/xhtml" style="display: table-cell; white-space: nowrap; line-height: 1.5;"><span class="edgeLabel"><p>0..*</p></span></div></foreignObject></g></g><g class="edgeTerminals" transform="translate(908.38281125, 259)"><g class="inner" transform="translate(-2.890625, -8.25)"><foreignObject width="5.78125" height="16.5" style="width: 9px; height: 12px;"><div xmlns="http://www.w3.org/1999/xhtml" style="display: table-cell; white-space: nowrap; line-height: 1.5;"><span class="edgeLabel"><p>1</p></span></div></foreignObject></g></g><g class="edgeTerminals" transform="translate(1277.14843875, 259)"><g class="inner" transform="translate(-2.890625, -8.25)"><foreignObject width="5.78125" height="16.5" style="width: 9px; height: 12px;"><div xmlns="http://www.w3.org/1999/xhtml" style="display: table-cell; white-space: nowrap; line-height: 1.5;"><span class="edgeLabel"><p>1</p></span></div></foreignObject></g></g><g class="edgeTerminals" transform="translate(1688.386719375, 86)"><g class="inner" transform="translate(-2.890625, -8.25)"><foreignObject width="5.78125" height="16.5" style="width: 9px; height: 12px;"><div xmlns="http://www.w3.org/1999/xhtml" style="display: table-cell; white-space: nowrap; line-height: 1.5;"><span class="edgeLabel"><p>1</p></span></div></foreignObject></g></g><g class="edgeTerminals" transform="translate(1731.27343875, 259)"><g class="inner" transform="translate(-2.890625, -8.25)"><foreignObject width="5.78125" height="16.5" style="width: 9px; height: 12px;"><div xmlns="http://www.w3.org/1999/xhtml" style="display: table-cell; white-space: nowrap; line-height: 1.5;"><span class="edgeLabel"><p>1</p></span></div></foreignObject></g></g><g class="edgeTerminals" transform="translate(236.5625, 277.5)"><g class="inner" transform="translate(-8.9453125, -8.25)"/><foreignObject width="17.890625" height="16.5" style="width: 36px; height: 12px;"><div xmlns="http://www.w3.org/1999/xhtml" style="display: table-cell; white-space: nowrap; line-height: 1.5;"><span class="edgeLabel"><p>0..*</p></span></div></foreignObject></g><g class="edgeTerminals" transform="translate(571.1101476710933, 177.09314971627592)"><g class="inner" transform="translate(-8.9453125, -8.25)"/><foreignObject width="17.890625" height="16.5" style="width: 36px; height: 12px;"><div xmlns="http://www.w3.org/1999/xhtml" style="display: table-cell; white-space: nowrap; line-height: 1.5;"><span class="edgeLabel"><p>0..*</p></span></div></foreignObject></g><g class="edgeTerminals" transform="translate(562.9453898289066, 272.0392780030758)"><g class="inner" transform="translate(-8.9453125, -8.25)"/><foreignObject width="17.890625" height="16.5" style="width: 36px; height: 12px;"><div xmlns="http://www.w3.org/1999/xhtml" style="display: table-cell; white-space: nowrap; line-height: 1.5;"><span class="edgeLabel"><p>0..*</p></span></div></foreignObject></g><g class="edgeTerminals" transform="translate(980.88281125, 224)"><g class="inner" transform="translate(-8.9453125, -8.25)"/><foreignObject width="17.890625" height="16.5" style="width: 36px; height: 12px;"><div xmlns="http://www.w3.org/1999/xhtml" style="display: table-cell; white-space: nowrap; line-height: 1.5;"><span class="edgeLabel"><p>1..*</p></span></div></foreignObject></g><g class="edgeTerminals" transform="translate(1349.64843875, 224)"><g class="inner" transform="translate(-8.9453125, -8.25)"/><foreignObject width="17.890625" height="16.5" style="width: 36px; height: 12px;"><div xmlns="http://www.w3.org/1999/xhtml" style="display: table-cell; white-space: nowrap; line-height: 1.5;"><span class="edgeLabel"><p>0..*</p></span></div></foreignObject></g><g class="edgeTerminals" transform="translate(1808.845702295582, 68.215824807101)"><g class="inner" transform="translate(-8.9453125, -8.25)"/><foreignObject width="17.890625" height="16.5" style="width: 36px; height: 12px;"><div xmlns="http://www.w3.org/1999/xhtml" style="display: table-cell; white-space: nowrap; line-height: 1.5;"><span class="edgeLabel"><p>0..*</p></span></div></foreignObject></g><g class="edgeTerminals" transform="translate(1797.428600204418, 209.0416125888435)"><g class="inner" transform="translate(-8.9453125, -8.25)"/><foreignObject width="17.890625" height="16.5" style="width: 36px; height: 12px;"><div xmlns="http://www.w3.org/1999/xhtml" style="display: table-cell; white-space: nowrap; line-height: 1.5;"><span class="edgeLabel"><p>0..*</p></span></div></foreignObject></g></g><g class="nodes"><g class="node default" id="my-svg-classId-School-0" data-look="classic" transform="translate(78.546875, 244)"><g class="basic label-container outer-path"><path d="M-70.546875 -60 L70.546875 -60 L70.546875 60 L-70.546875 60" stroke="none" stroke-width="0" fill="#27272a" style=""/><path d="M-70.546875 -60 C-38.80498889437271 -60, -7.063102788745425 -60, 70.546875 -60 M-70.546875 -60 C-30.40617231717345 -60, 9.7345303656531 -60, 70.546875 -60 M70.546875 -60 C70.546875 -28.55661033077396, 70.546875 2.8867793384520795, 70.546875 60 M70.546875 -60 C70.546875 -21.65677326997575, 70.546875 16.686453460048497, 70.546875 60 M70.546875 60 C15.079318910119042 60, -40.388237179761916 60, -70.546875 60 M70.546875 60 C19.894918085020414 60, -30.75703882995917 60, -70.546875 60 M-70.546875 60 C-70.546875 24.268020648633524, -70.546875 -11.463958702732953, -70.546875 -60 M-70.546875 60 C-70.546875 26.237823120835962, -70.546875 -7.5243537583280755, -70.546875 -60" stroke="#7bd0ff" stroke-width="1.3" fill="none" stroke-dasharray="0 0" style=""/></g><g class="annotation-group text" transform="translate(0, -36)"/><g class="label-group text" transform="translate(-24.34375, -36)"><g class="label" style="font-weight: bolder" transform="translate(0,-12)"><foreignObject width="48.6875" height="24"><div xmlns="http://www.w3.org/1999/xhtml" style="display: table-cell; white-space: nowrap; line-height: 1.5; max-width: 95px; text-align: center;"><span class="nodeLabel markdown-node-label" style=""><p>School</p></span></div></foreignObject></g></g><g class="members-group text" transform="translate(-58.546875, 12)"><g class="label" style="" transform="translate(0,-12)"><foreignObject width="92.75" height="24"><div xmlns="http://www.w3.org/1999/xhtml" style="display: table-cell; white-space: nowrap; line-height: 1.5; max-width: 140px; text-align: center;"><span class="nodeLabel markdown-node-label" style=""><p>+string name</p></span></div></foreignObject></g></g><g class="methods-group text" transform="translate(-58.546875, 60)"/><g class="divider" style=""><path d="M-70.546875 -12 C-38.85831471354352 -11.999775407767627, -7.169754427087042 -11.999550815535253, 70.546875 -11.999 M-70.546875 -12 C-15.066804637491515 -11.999606785769302, 40.41326572501697 -11.999213571538604, 70.546875 -11.999" stroke="#7bd0ff" stroke-width="1.3" fill="none" stroke-dasharray="0 0" style=""/></g><g class="divider" style=""><path d="M-70.546875 36 C-25.822659560095623 36.00031698225782, 18.901555879808754 36.00063396451565, 70.546875 36.001 M-70.546875 36 C-25.438811408960582 36.00031970277628, 19.669252182078836 36.00063940555256, 70.546875 36.001" stroke="#7bd0ff" stroke-width="1.3" fill="none" stroke-dasharray="0 0" style=""/></g></g><g class="node default" id="my-svg-classId-Classroom-1" data-look="classic" transform="translate(385.81640625, 297.5)"><g class="basic label-container outer-path"><path d="M-126.75390625 -60 L126.75390625 -60 L126.75390625 60 L-126.75390625 60" stroke="none" stroke-width="0" fill="#27272a" style=""/><path d="M-126.75390625 -60 C-71.16783859479133 -60, -15.581770939582654 -60, 126.75390625 -60 M-126.75390625 -60 C-72.38068419636184 -60, -18.007462142723696 -60, 126.75390625 -60 M126.75390625 -60 C126.75390625 -12.37045500139942, 126.75390625 35.25908999720116, 126.75390625 60 M126.75390625 -60 C126.75390625 -24.3832586686649, 126.75390625 11.233482662670198, 126.75390625 60 M126.75390625 60 C44.141127827416696 60, -38.47165059516661 60, -126.75390625 60 M126.75390625 60 C56.59451013680601 60, -13.564885976387984 60, -126.75390625 60 M-126.75390625 60 C-126.75390625 24.113941028931478, -126.75390625 -11.772117942137044, -126.75390625 -60 M-126.75390625 60 C-126.75390625 29.298415381514648, -126.75390625 -1.4031692369707045, -126.75390625 -60" stroke="#7bd0ff" stroke-width="1.3" fill="none" stroke-dasharray="0 0" style=""/></g><g class="annotation-group text" transform="translate(0, -36)"/><g class="label-group text" transform="translate(-37.7578125, -36)"><g class="label" style="font-weight: bolder" transform="translate(0,-12)"><foreignObject width="75.515625" height="24"><div xmlns="http://www.w3.org/1999/xhtml" style="display: table-cell; white-space: nowrap; line-height: 1.5; max-width: 119px; text-align: center;"><span class="nodeLabel markdown-node-label" style=""><p>Classroom</p></span></div></foreignObject></g></g><g class="members-group text" transform="translate(-114.75390625, 12)"><g class="label" style="" transform="translate(0,-12)"><foreignObject width="191.75" height="24"><div xmlns="http://www.w3.org/1999/xhtml" style="display: table-cell; white-space: nowrap; line-height: 1.5; max-width: 229px; text-align: center;"><span class="nodeLabel markdown-node-label" style=""><p>+string name; +string level</p></span></div></foreignObject></g></g><g class="methods-group text" transform="translate(-114.75390625, 60)"/><g class="divider" style=""><path d="M-126.75390625 -12 C-72.28871946658674 -11.999785153813422, -17.823532683173482 -11.999570307626843, 126.75390625 -11.999 M-126.75390625 -12 C-65.58167856094315 -11.999758696873734, -4.409450871886307 -11.99951739374747, 126.75390625 -11.999" stroke="#7bd0ff" stroke-width="1.3" fill="none" stroke-dasharray="0 0" style=""/></g><g class="divider" style=""><path d="M-126.75390625 36 C-29.99697842676167 36.000381672370835, 66.75994939647666 36.00076334474168, 126.75390625 36.001 M-126.75390625 36 C-75.40895887959263 36.00020253792916, -24.064011509185264 36.000405075858325, 126.75390625 36.001" stroke="#7bd0ff" stroke-width="1.3" fill="none" stroke-dasharray="0 0" style=""/></g></g><g class="node default" id="my-svg-classId-Subject-2" data-look="classic" transform="translate(739.875, 244)"><g class="basic label-container outer-path"><path d="M-151.0078125 -60 L151.0078125 -60 L151.0078125 60 L-151.0078125 60" stroke="none" stroke-width="0" fill="#27272a" style=""/><path d="M-151.0078125 -60 C-72.87959269130855 -60, 5.2486271173829095 -60, 151.0078125 -60 M-151.0078125 -60 C-39.08111061580382 -60, 72.84559126839235 -60, 151.0078125 -60 M151.0078125 -60 C151.0078125 -26.66637357931451, 151.0078125 6.667252841370981, 151.0078125 60 M151.0078125 -60 C151.0078125 -29.305544112874866, 151.0078125 1.3889117742502677, 151.0078125 60 M151.0078125 60 C34.8516638555643 60, -81.3044847888714 60, -151.0078125 60 M151.0078125 60 C78.55741149724587 60, 6.107010494491732 60, -151.0078125 60 M-151.0078125 60 C-151.0078125 15.014703490521292, -151.0078125 -29.970593018957416, -151.0078125 -60 M-151.0078125 60 C-151.0078125 28.733777880928017, -151.0078125 -2.5324442381439667, -151.0078125 -60" stroke="#7bd0ff" stroke-width="1.3" fill="none" stroke-dasharray="0 0" style=""/></g><g class="annotation-group text" transform="translate(0, -36)"/><g class="label-group text" transform="translate(-28.265625, -36)"><g class="label" style="font-weight: bolder" transform="translate(0,-12)"><foreignObject width="56.53125" height="24"><div xmlns="http://www.w3.org/1999/xhtml" style="display: table-cell; white-space: nowrap; line-height: 1.5; max-width: 99px; text-align: center;"><span class="nodeLabel markdown-node-label" style=""><p>Subject</p></span></div></foreignObject></g></g><g class="members-group text" transform="translate(-139.0078125, 12)"><g class="label" style="" transform="translate(0,-12)"><foreignObject width="249.75" height="24"><div xmlns="http://www.w3.org/1999/xhtml" style="display: table-cell; white-space: nowrap; line-height: 1.5; max-width: 278px; text-align: center;"><span class="nodeLabel markdown-node-label" style=""><p>+string name; +int expected_hours</p></span></div></foreignObject></g></g><g class="methods-group text" transform="translate(-139.0078125, 60)"/><g class="divider" style=""><path d="M-151.0078125 -12 C-54.483497424317974 -11.99968039959828, 42.04081765136405 -11.99936079919656, 151.0078125 -11.999 M-151.0078125 -12 C-58.60366771817928 -11.999694041840446, 33.80047706364144 -11.999388083680891, 151.0078125 -11.999" stroke="#7bd0ff" stroke-width="1.3" fill="none" stroke-dasharray="0 0" style=""/></g><g class="divider" style=""><path d="M-151.0078125 36 C-54.62110524935312 36.000319144770245, 41.76560200129376 36.00063828954048, 151.0078125 36.001 M-151.0078125 36 C-46.46605154123819 36.0003461468623, 58.075709417523626 36.0006922937246, 151.0078125 36.001" stroke="#7bd0ff" stroke-width="1.3" fill="none" stroke-dasharray="0 0" style=""/></g></g><g class="node default" id="my-svg-classId-Chapter-3" data-look="classic" transform="translate(1131.515625, 244)"><g class="basic label-container outer-path"><path d="M-128.1328125 -60 L128.1328125 -60 L128.1328125 60 L-128.1328125 60" stroke="none" stroke-width="0" fill="#27272a" style=""/><path d="M-128.1328125 -60 C-70.43289393294543 -60, -12.73297536589088 -60, 128.1328125 -60 M-128.1328125 -60 C-47.6938882262165 -60, 32.745036047567 -60, 128.1328125 -60 M128.1328125 -60 C128.1328125 -23.722185822854684, 128.1328125 12.555628354290633, 128.1328125 60 M128.1328125 -60 C128.1328125 -34.843424897956766, 128.1328125 -9.686849795913524, 128.1328125 60 M128.1328125 60 C32.516388839540426 60, -63.10003482091915 60, -128.1328125 60 M128.1328125 60 C45.43744079753537 60, -37.25793090492925 60, -128.1328125 60 M-128.1328125 60 C-128.1328125 31.424836859961488, -128.1328125 2.8496737199229756, -128.1328125 -60 M-128.1328125 60 C-128.1328125 23.07038919811314, -128.1328125 -13.859221603773719, -128.1328125 -60" stroke="#7bd0ff" stroke-width="1.3" fill="none" stroke-dasharray="0 0" style=""/></g><g class="annotation-group text" transform="translate(0, -36)"/><g class="label-group text" transform="translate(-29.75, -36)"><g class="label" style="font-weight: bolder" transform="translate(0,-12)"><foreignObject width="59.5" height="24"><div xmlns="http://www.w3.org/1999/xhtml" style="display: table-cell; white-space: nowrap; line-height: 1.5; max-width: 101px; text-align: center;"><span class="nodeLabel markdown-node-label" style=""><p>Chapter</p></span></div></foreignObject></g></g><g class="members-group text" transform="translate(-116.1328125, 12)"><g class="label" style="" transform="translate(0,-12)"><foreignObject width="202.515625" height="24"><div xmlns="http://www.w3.org/1999/xhtml" style="display: table-cell; white-space: nowrap; line-height: 1.5; max-width: 235px; text-align: center;"><span class="nodeLabel markdown-node-label" style=""><p>+string title; +int sort_order</p></span></div></foreignObject></g></g><g class="methods-group text" transform="translate(-116.1328125, 60)"/><g class="divider" style=""><path d="M-128.1328125 -12 C-72.32493567535616 -11.999782226442488, -16.517058850712317 -11.999564452884973, 128.1328125 -11.999 M-128.1328125 -12 C-29.830278462217407 -11.99961640374499, 68.47225557556519 -11.99923280748998, 128.1328125 -11.999" stroke="#7bd0ff" stroke-width="1.3" fill="none" stroke-dasharray="0 0" style=""/></g><g class="divider" style=""><path d="M-128.1328125 36 C-36.64803608534356 36.00035699199381, 54.836740329312875 36.00071398398762, 128.1328125 36.001 M-128.1328125 36 C-75.33711562584715 36.00020601942564, -22.541418751694295 36.00041203885128, 128.1328125 36.001" stroke="#7bd0ff" stroke-width="1.3" fill="none" stroke-dasharray="0 0" style=""/></g></g><g class="node default" id="my-svg-classId-Video-4" data-look="classic" transform="translate(1542.9609375, 244)"><g class="basic label-container outer-path"><path d="M-170.8125 -60 L170.8125 -60 L170.8125 60 L-170.8125 60" stroke="none" stroke-width="0" fill="#27272a" style=""/><path d="M-170.8125 -60 C-42.234321991601945 -60, 86.34385601679611 -60, 170.8125 -60 M-170.8125 -60 C-78.99330303417482 -60, 12.82589393165037 -60, 170.8125 -60 M170.8125 -60 C170.8125 -21.842724614891566, 170.8125 16.31455077021687, 170.8125 60 M170.8125 -60 C170.8125 -31.159180511732202, 170.8125 -2.318361023464405, 170.8125 60 M170.8125 60 C79.27830372140707 60, -12.25589255718586 60, -170.8125 60 M170.8125 60 C67.7465631522543 60, -35.31937369549141 60, -170.8125 60 M-170.8125 60 C-170.8125 22.07250227418713, -170.8125 -15.85499545162574, -170.8125 -60 M-170.8125 60 C-170.8125 29.57127575048598, -170.8125 -0.8574484990280382, -170.8125 -60" stroke="#7bd0ff" stroke-width="1.3" fill="none" stroke-dasharray="0 0" style=""/></g><g class="annotation-group text" transform="translate(0, -36)"/><g class="label-group text" transform="translate(-20.984375, -36)"><g class="label" style="font-weight: bolder" transform="translate(0,-12)"><foreignObject width="41.96875" height="24"><div xmlns="http://www.w3.org/1999/xhtml" style="display: table-cell; white-space: nowrap; line-height: 1.5; max-width: 89px; text-align: center;"><span class="nodeLabel markdown-node-label" style=""><p>Video</p></span></div></foreignObject></g></g><g class="members-group text" transform="translate(-158.8125, 12)"><g class="label" style="" transform="translate(0,-12)"><foreignObject width="296.640625" height="24"><div xmlns="http://www.w3.org/1999/xhtml" style="display: table-cell; white-space: nowrap; line-height: 1.5; max-width: 323px; text-align: center;"><span class="nodeLabel markdown-node-label" style=""><p>+string source_url; +int duration_seconds</p></span></div></foreignObject></g></g><g class="methods-group text" transform="translate(-158.8125, 60)"/><g class="divider" style=""><path d="M-170.8125 -12 C-51.10433282552576 -11.999649591899965, 68.60383434894848 -11.99929918379993, 170.8125 -11.999 M-170.8125 -12 C-95.36785512226164 -11.999779159473464, -19.92321024452329 -11.99955831894693, 170.8125 -11.999" stroke="#7bd0ff" stroke-width="1.3" fill="none" stroke-dasharray="0 0" style=""/></g><g class="divider" style=""><path d="M-170.8125 36 C-82.60958810912493 36.00025818635021, 5.5933237817501436 36.000516372700424, 170.8125 36.001 M-170.8125 36 C-66.0515776314643 36.00030665473068, 38.709344737071405 36.00061330946136, 170.8125 36.001" stroke="#7bd0ff" stroke-width="1.3" fill="none" stroke-dasharray="0 0" style=""/></g></g><g class="node default" id="my-svg-classId-User-5" data-look="classic" transform="translate(1542.9609375, 71)"><g class="basic label-container outer-path"><path d="M-127.92578125 -63 L127.92578125 -63 L127.92578125 63 L-127.92578125 63" stroke="none" stroke-width="0" fill="#27272a" style=""/><path d="M-127.92578125 -63 C-42.377869033283176 -63, 43.17004318343365 -63, 127.92578125 -63 M-127.92578125 -63 C-72.70353818800541 -63, -17.481295126010835 -63, 127.92578125 -63 M127.92578125 -63 C127.92578125 -28.17299271541983, 127.92578125 6.6540145691603385, 127.92578125 63 M127.92578125 -63 C127.92578125 -28.124586004088698, 127.92578125 6.750827991822604, 127.92578125 63 M127.92578125 63 C59.73807088456262 63, -8.449639480874765 63, -127.92578125 63 M127.92578125 63 C27.935535677701324 63, -72.05470989459735 63, -127.92578125 63 M-127.92578125 63 C-127.92578125 36.05042772371631, -127.92578125 9.100855447432615, -127.92578125 -63 M-127.92578125 63 C-127.92578125 18.414377920397314, -127.92578125 -26.171244159205372, -127.92578125 -63" stroke="#7bd0ff" stroke-width="1.3" fill="none" stroke-dasharray="0 0" style=""/></g><g class="annotation-group text" transform="translate(0, -39)"/><g class="label-group text" transform="translate(-16.8828125, -39)"><g class="label" style="font-weight: bolder" transform="translate(0,-12)"><foreignObject width="33.765625" height="24"><div xmlns="http://www.w3.org/1999/xhtml" style="display: table-cell; white-space: nowrap; line-height: 1.5; max-width: 82px; text-align: center;"><span class="nodeLabel markdown-node-label" style=""><p>User</p></span></div></foreignObject></g></g><g class="members-group text" transform="translate(-115.92578125, 9)"/><g class="methods-group text" transform="translate(-115.92578125, 39)"><g class="label" style="" transform="translate(0,-12)"><foreignObject width="214.96875" height="24"><div xmlns="http://www.w3.org/1999/xhtml" style="display: table-cell; white-space: nowrap; line-height: 1.5; max-width: 254px; text-align: center;"><span class="nodeLabel markdown-node-label" style=""><p>+string role; +isAdmin() : bool</p></span></div></foreignObject></g></g><g class="divider" style=""><path d="M-127.92578125 -15 C-27.436914800956032 -14.999607237628464, 73.05195164808794 -14.999214475256926, 127.92578125 -14.999 M-127.92578125 -15 C-52.30660410282425 -14.999704441214242, 23.312573044351495 -14.999408882428481, 127.92578125 -14.999" stroke="#7bd0ff" stroke-width="1.3" fill="none" stroke-dasharray="0 0" style=""/></g><g class="divider" style=""><path d="M-127.92578125 9 C-33.57623929766375 9.000368766721728, 60.773302654672506 9.000737533443457, 127.92578125 9.001 M-127.92578125 9 C-73.54141552496117 9.000212562179389, -19.15704979992232 9.000425124358777, 127.92578125 9.001" stroke="#7bd0ff" stroke-width="1.3" fill="none" stroke-dasharray="0 0" style=""/></g></g><g class="node default" id="my-svg-classId-VideoProgress-6" data-look="classic" transform="translate(1979.234375, 157.5)"><g class="basic label-container outer-path"><path d="M-154.9140625 -84 L154.9140625 -84 L154.9140625 84 L-154.9140625 84" stroke="none" stroke-width="0" fill="#27272a" style=""/><path d="M-154.9140625 -84 C-58.86181247759356 -84, 37.19043754481288 -84, 154.9140625 -84 M-154.9140625 -84 C-33.42821088745815 -84, 88.0576407250837 -84, 154.9140625 -84 M154.9140625 -84 C154.9140625 -28.369339812055337, 154.9140625 27.261320375889326, 154.9140625 84 M154.9140625 -84 C154.9140625 -18.12512508650181, 154.9140625 47.74974982699638, 154.9140625 84 M154.9140625 84 C40.79295624782364 84, -73.32815000435272 84, -154.9140625 84 M154.9140625 84 C33.43077238225926 84, -88.05251773548147 84, -154.9140625 84 M-154.9140625 84 C-154.9140625 33.364925755777726, -154.9140625 -17.270148488444548, -154.9140625 -84 M-154.9140625 84 C-154.9140625 45.01619325327114, -154.9140625 6.032386506542281, -154.9140625 -84" stroke="#7bd0ff" stroke-width="1.3" fill="none" stroke-dasharray="0 0" style=""/></g><g class="annotation-group text" transform="translate(0, -60)"/><g class="label-group text" transform="translate(-52.546875, -60)"><g class="label" style="font-weight: bolder" transform="translate(0,-12)"><foreignObject width="105.09375" height="24"><div xmlns="http://www.w3.org/1999/xhtml" style="display: table-cell; white-space: nowrap; line-height: 1.5; max-width: 144px; text-align: center;"><span class="nodeLabel markdown-node-label" style=""><p>VideoProgress</p></span></div></foreignObject></g></g><g class="members-group text" transform="translate(-142.9140625, -12)"><g class="label" style="" transform="translate(0,-12)"><foreignObject width="233.28125" height="24"><div xmlns="http://www.w3.org/1999/xhtml" style="display: table-cell; white-space: nowrap; line-height: 1.5; max-width: 265px; text-align: center;"><span class="nodeLabel markdown-node-label" style=""><p>+int watched_seconds_validated</p></span></div></foreignObject></g><g class="label" style="" transform="translate(0,12)"><foreignObject width="191.546875" height="24"><div xmlns="http://www.w3.org/1999/xhtml" style="display: table-cell; white-space: nowrap; line-height: 1.5; max-width: 225px; text-align: center;"><span class="nodeLabel markdown-node-label" style=""><p>+float completion_percent</p></span></div></foreignObject></g><g class="label" style="" transform="translate(0,36)"><foreignObject width="96.375" height="24"><div xmlns="http://www.w3.org/1999/xhtml" style="display: table-cell; white-space: nowrap; line-height: 1.5; max-width: 141px; text-align: center;"><span class="nodeLabel markdown-node-label" style=""><p>+string status</p></span></div></foreignObject></g></g><g class="methods-group text" transform="translate(-142.9140625, 84)"/><g class="divider" style=""><path d="M-154.9140625 -36 C-81.25041813315518 -35.999762243520124, -7.586773766310358 -35.99952448704025, 154.9140625 -35.999 M-154.9140625 -36 C-51.3871130500724 -35.99966585683772, 52.1398363998552 -35.999331713675446, 154.9140625 -35.999" stroke="#7bd0ff" stroke-width="1.3" fill="none" stroke-dasharray="0 0" style=""/></g><g class="divider" style=""><path d="M-154.9140625 60 C-70.2513137539867 60.00027325714457, 14.411434992026614 60.00054651428915, 154.9140625 60.001 M-154.9140625 60 C-73.20959416191371 60.000263709010724, 8.494874176172573 60.00052741802145, 154.9140625 60.001" stroke="#7bd0ff" stroke-width="1.3" fill="none" stroke-dasharray="0 0" style=""/></g></g></g></g></g><defs><filter id="my-svg-drop-shadow" height="130%" width="130%"><feDropShadow dx="4" dy="4" stdDeviation="0" flood-opacity="0.06" flood-color="#000000"/></filter></defs><defs><filter id="my-svg-drop-shadow-small" height="150%" width="150%"><feDropShadow dx="2" dy="2" stdDeviation="0" flood-opacity="0.06" flood-color="#000000"/></filter></defs><linearGradient id="my-svg-gradient" gradientUnits="objectBoundingBox" x1="0%" y1="0%" x2="100%" y2="0%"><stop offset="0%" stop-color="#7bd0ff" stop-opacity="1"/><stop offset="100%" stop-color="#47c4ff" stop-opacity="1"/></linearGradient></svg>